# xmcd
#
# Track frame offsets:
#	150
#	25147
#	42452
#	63290
#	88550
#	113795
#	137937
#	158280
#	182350
#	209895
#
# Disc length: 3158 seconds
#
# Revision: 1
# Processed by: cddbd v1.5.1PL0 Copyright (c) Steve Scherf et al.
# Submitted via: CDex 1.50Beta5
#
DISCID=820c540a
DTITLE=青木秀一 - More Than That
DYEAR=2002
DGENRE=Rock
TTITLE0=More Than That
TTITLE1=Run To It
TTITLE2=Break It Up
TTITLE3=Missing
TTITLE4=I Need You To Stay
TTITLE5=Help Me
TTITLE6=Give Me Your Love
TTITLE7=Is You…
TTITLE8=I’ll Be The One
TTITLE9=All About Soul
EXTD=
EXTT0=
EXTT1=
EXTT2=
EXTT3=
EXTT4=
EXTT5=
EXTT6=
EXTT7=
EXTT8=
EXTT9=
PLAYORDER=
